<?xml version="1.0" standalone="no"?>
<!DOCTYPE svg PUBLIC "-//W3C//DTD SVG 20010904//EN"
 "http://www.w3.org/TR/2001/REC-SVG-20010904/DTD/svg10.dtd">
<svg version="1.0" xmlns="http://www.w3.org/2000/svg"
 width="600.000000pt" height="600.000000pt" viewBox="0 0 600.000000 600.000000"
 preserveAspectRatio="xMidYMid meet">
<metadata>
Created by potrace 1.14, written by Peter Selinger 2001-2017
</metadata>
<g transform="translate(0.000000,600.000000) scale(0.100000,-0.100000)"
fill="#000000" stroke="none">
<path d="M2920 4726 c-154 -28 -314 -83 -426 -147 -30 -17 -54 -32 -54 -34 0
-1 45 17 99 41 54 25 152 59 217 76 111 30 131 32 294 32 157 1 183 -1 250
-22 150 -48 231 -105 276 -198 22 -45 25 -62 19 -100 -12 -83 -79 -123 -143
-86 -24 13 -54 20 -83 20 -43 -1 -52 4 -120 61 -41 34 -108 79 -149 99 l-74
37 -201 0 c-170 -1 -224 -5 -356 -28 -85 -14 -166 -31 -180 -37 -23 -10 -22
-10 6 -5 155 26 271 37 451 42 242 6 280 0 379 -65 63 -42 185 -148 185 -162
0 -16 -94 -40 -155 -40 -94 0 -149 20 -340 124 -38 21 -81 42 -95 46 -14 4
-34 11 -45 15 -11 4 5 -9 35 -30 30 -20 62 -43 71 -51 9 -8 19 -11 24 -7 4 5
5 3 1 -4 -3 -6 4 -19 16 -27 35 -25 13 -19 -50 13 -171 86 -307 120 -405 101
-64 -12 -154 -46 -145 -55 3 -3 25 2 49 11 71 27 189 22 284 -10 88 -30 385
-182 385 -197 0 -13 -112 -39 -173 -39 -62 0 -68 2 -114 40 -162 134 -200 143
-369 84 -85 -29 -125 -38 -181 -38 -80 -1 -74 -14 12 -23 41 -4 83 2 179 26
142 37 170 34 245 -20 48 -36 45 -42 -28 -54 -49 -8 -82 -21 -190 -72 -57 -27
-87 -35 -130 -35 -70 -1 -149 22 -204 60 -69 46 -74 47 -33 4 21 -22 66 -56
100 -74 54 -29 70 -33 141 -33 44 0 96 4 115 8 l35 8 -29 -24 c-19 -17 -52
-29 -95 -37 -36 -6 -79 -14 -96 -17 l-30 -6 25 -9 c30 -11 122 -1 170 19 19 8
47 26 63 40 32 31 37 13 8 -30 -22 -34 -87 -80 -101 -72 -6 3 -10 2 -10 -3 0
-6 -8 -9 -17 -8 -10 0 -17 -4 -16 -10 1 -8 -6 -10 -19 -6 -14 3 -19 1 -14 -6
4 -7 2 -10 -6 -7 -17 6 -29 -4 -50 -42 -25 -44 -23 -46 22 -23 22 11 40 16 40
11 0 -5 -13 -14 -30 -21 -44 -18 -26 -33 32 -27 27 4 55 4 64 0 13 -5 13 -8
-2 -24 -10 -11 -12 -19 -6 -19 10 0 42 -49 42 -65 0 -3 -16 -5 -35 -5 -74 0
-135 -104 -135 -229 0 -87 34 -159 103 -224 50 -46 50 -47 22 -42 -17 3 -104
17 -194 31 -90 14 -184 32 -208 39 -59 18 -203 113 -214 141 -10 28 -83 79
-99 69 -6 -3 -24 -30 -40 -58 -28 -49 -29 -50 -38 -26 -6 13 -17 42 -26 64 -9
22 -19 67 -24 100 -7 58 -8 60 -39 63 -45 4 -56 -21 -49 -115 7 -104 16 -104
16 0 0 74 3 88 18 96 27 15 42 -5 42 -56 0 -26 13 -73 31 -118 l32 -74 -62
-112 c-34 -61 -60 -113 -57 -116 2 -2 43 62 91 144 48 81 94 158 102 171 l14
22 35 -26 c24 -19 33 -32 28 -43 -4 -9 -45 -128 -92 -265 l-86 -249 -35 39
c-40 44 -130 117 -115 94 12 -20 149 -150 157 -150 4 0 13 14 19 30 l13 31 84
-70 c69 -57 107 -80 218 -127 73 -31 161 -73 196 -93 l62 -37 8 -564 c5 -311
10 -566 11 -568 2 -1 30 -7 62 -12 174 -28 350 -43 624 -52 168 -5 367 -12
443 -14 128 -5 372 8 383 19 21 21 134 814 134 937 0 13 26 22 133 44 345 71
483 119 646 227 50 33 93 64 96 69 3 5 -35 111 -84 235 -50 124 -91 230 -91
235 0 9 59 45 64 38 2 -2 46 -64 98 -138 53 -74 117 -162 142 -195 41 -55 44
-61 28 -72 -31 -23 -83 -78 -93 -98 -6 -11 7 -1 28 21 21 23 53 49 71 58 17 9
32 20 32 24 0 4 -16 31 -35 59 -41 62 -42 69 -11 77 13 3 66 37 118 76 87 63
100 78 151 162 74 124 207 272 264 294 89 34 61 87 -52 97 -82 8 -103 -1 -201
-89 -40 -35 -75 -64 -78 -64 -12 0 -5 75 9 100 19 34 19 79 -1 87 -16 6 -77
-45 -96 -82 -6 -11 9 2 34 29 46 51 68 55 68 12 0 -42 -24 -57 -107 -68 -6 -1
-9 -8 -5 -16 3 -9 1 -13 -4 -9 -15 9 1 -111 21 -161 25 -61 28 -47 5 27 -11
34 -20 76 -20 91 0 33 23 60 51 60 15 0 19 -7 19 -39 0 -48 15 -93 53 -154
l29 -48 -17 -55 c-9 -30 -28 -68 -41 -84 -28 -33 -154 -129 -200 -153 -29 -15
-33 -15 -46 1 -32 37 -128 181 -128 191 0 6 12 36 26 68 15 32 29 85 33 118 5
48 10 61 25 63 28 6 36 -15 36 -102 0 -98 8 -95 15 7 6 68 4 78 -14 96 -42 42
-81 15 -81 -57 0 -27 -11 -76 -27 -115 l-27 -69 -31 36 c-16 20 -38 36 -47 36
-25 0 -76 -33 -81 -52 -6 -20 -78 -58 -168 -88 -86 -29 -239 -36 -454 -20 -94
6 -172 14 -174 16 -3 2 11 21 31 42 76 79 108 156 128 304 9 66 16 85 35 100
38 29 75 117 83 195 5 46 14 76 25 88 14 14 17 27 12 64 -10 67 -33 83 -114
80 -64 -2 -65 -2 -74 27 -6 16 -10 101 -11 189 -1 150 -2 162 -24 193 -26 35
-50 45 -32 13 15 -30 12 -38 -14 -43 -24 -5 -44 16 -27 27 22 13 51 98 51 147
-1 187 -226 333 -530 343 -70 3 -144 -1 -190 -9z m669 -568 c17 -54 41 -160
65 -295 4 -23 2 -33 -7 -33 -6 -1 -59 -5 -117 -10 -95 -7 -106 -10 -125 -34
-28 -35 -67 -34 -90 0 l-17 27 -307 -8 c-168 -4 -335 -10 -371 -13 -36 -4 -92
-6 -125 -4 l-61 3 -15 87 c-9 49 -13 96 -9 108 11 29 113 46 298 50 143 4 212
15 316 55 29 10 74 21 101 24 88 9 117 16 192 46 47 18 92 29 126 29 28 1 66
7 82 15 17 7 33 14 37 14 3 1 16 -27 27 -61z m69 19 c4 -29 0 -30 -35 -21 -27
8 -29 22 -5 40 24 18 36 12 40 -19z m2 -62 c0 -31 -35 -35 -43 -6 -6 24 0 31
25 31 13 0 18 -7 18 -25z m-1005 -42 c18 -14 18 -15 2 -9 -10 3 -51 6 -90 7
-51 1 -65 3 -47 9 43 14 114 10 135 -7z m1015 -48 c0 -25 -4 -45 -9 -45 -10 0
-23 69 -15 82 13 21 24 4 24 -37z m-1280 -163 c0 -29 -44 -63 -89 -69 -51 -7
-52 1 -3 26 20 10 46 28 56 40 23 26 36 27 36 3z m246 -179 c10 -48 13 -53 35
-61 14 -6 30 -31 48 -78 83 -214 223 -286 413 -214 100 38 175 127 199 238 7
28 16 52 20 52 4 0 20 -21 35 -47 37 -64 120 -151 167 -175 21 -10 60 -22 87
-25 l48 -6 -5 -36 c-31 -213 -133 -345 -316 -403 -81 -26 -322 -36 -435 -18
-155 25 -308 99 -372 180 -16 21 -30 42 -30 46 0 5 -4 15 -9 23 -7 11 -16 8
-45 -14 -127 -97 -326 39 -330 225 -2 112 51 210 115 210 15 0 31 -4 34 -10 3
-5 10 -10 16 -10 5 0 -2 23 -17 51 -14 28 -24 52 -22 54 2 1 21 12 43 23 35
18 58 21 177 22 l138 0 6 -27z m784 -56 c0 -23 90 -146 127 -173 55 -40 62
-48 27 -31 -17 9 -53 40 -79 69 -49 54 -103 148 -85 148 5 0 10 -6 10 -13z
m-659 -53 c5 -15 8 -29 5 -31 -2 -2 -8 10 -14 26 -13 38 -5 41 9 5z m108 -178
c25 -28 37 -43 26 -35 -44 31 -125 138 -125 163 0 6 12 -9 26 -34 15 -25 47
-67 73 -94z m2240 25 c-28 -18 -65 -59 -104 -115 -53 -76 -61 -84 -72 -69 -7
9 -13 22 -13 29 0 16 140 143 182 166 52 27 56 21 7 -11z m149 -3 c19 -19 14
-27 -28 -44 -43 -17 -110 -85 -187 -190 l-48 -64 -23 46 c-15 29 -20 50 -14
57 82 105 141 173 166 188 35 21 115 26 134 7z m-2640 -444 c66 -44 166 -92
209 -100 l33 -6 -25 -43 c-26 -43 -78 -185 -71 -192 2 -2 14 25 27 61 13 36
26 66 30 66 3 0 13 -34 22 -75 l16 -75 -45 -163 c-25 -89 -48 -169 -51 -177
-6 -19 -31 35 -88 196 -40 112 -97 304 -91 304 2 0 29 -34 61 -75 31 -41 59
-75 61 -75 3 0 -27 46 -65 103 -61 91 -70 111 -80 174 -13 84 -14 113 -3 113
4 0 31 -16 60 -36z m646 -171 c-3 -21 -16 -67 -28 -103 -20 -62 -23 -66 -76
-92 -59 -29 -54 -38 7 -13 20 8 38 14 39 12 2 -2 -25 -62 -61 -135 -35 -72
-74 -159 -86 -192 -12 -33 -24 -59 -26 -57 -2 3 -19 87 -38 188 l-35 183 34
85 c18 47 36 93 38 101 9 26 28 -62 23 -105 -4 -30 -3 -35 4 -20 14 30 13 88
-4 135 -8 23 -15 44 -15 46 0 2 52 4 115 4 l116 0 -7 -37z m-256 -1111 c7 -49
-44 -70 -72 -30 -23 32 -4 60 37 56 25 -2 33 -8 35 -26z m12 -227 c0 -15 -7
-26 -20 -30 -41 -13 -70 43 -33 64 25 13 53 -5 53 -34z"/>
<path d="M3360 3525 c0 -13 40 -68 59 -81 11 -8 21 -19 21 -23 0 -5 -18 -29
-41 -55 -22 -25 -37 -46 -34 -46 17 0 76 44 95 70 20 28 27 60 13 60 -5 0 -32
18 -60 40 -29 22 -53 38 -53 35z"/>
<path d="M3274 3236 c-26 -11 -52 -44 -42 -51 11 -6 201 14 210 23 27 27 -118
51 -168 28z"/>
<path d="M1050 3701 c0 -5 8 -7 18 -4 13 3 32 -10 62 -44 46 -52 45 -42 -3 20
-19 24 -37 37 -53 37 -13 0 -24 -4 -24 -9z"/>
<path d="M827 3684 c-3 -4 -29 -8 -57 -9 -91 -5 -108 -54 -31 -91 51 -25 196
-181 243 -264 59 -101 78 -123 167 -192 89 -67 127 -89 159 -87 9 0 0 7 -21
14 -40 15 -134 84 -197 144 -25 24 -43 55 -55 94 l-18 59 41 80 c31 58 42 91
42 124 0 47 11 55 46 30 25 -19 23 -91 -5 -166 -14 -38 -16 -49 -5 -35 24 33
47 124 41 168 -4 29 -3 37 4 26 9 -12 10 -12 6 1 -2 8 -8 15 -13 16 -5 0 -21
6 -36 12 -15 6 -34 9 -41 6 -9 -3 -20 8 -30 28 -9 18 -16 26 -16 18 0 -8 6
-26 14 -40 17 -29 20 -90 5 -90 -6 0 -45 30 -86 66 -42 36 -91 72 -110 80 -38
16 -39 16 -47 8z m56 -26 c30 -15 187 -151 187 -161 0 -5 -17 -41 -38 -81 -38
-71 -39 -73 -53 -51 -8 13 -49 66 -93 118 -71 86 -90 102 -148 121 -26 8 -22
35 8 46 67 26 137 -8 199 -94 24 -34 54 -71 66 -81 l23 -20 -23 30 c-12 17
-39 55 -59 85 -21 31 -55 64 -77 77 -40 23 -33 33 8 11z"/>
<path d="M1153 3371 c-9 -11 -20 -18 -24 -15 -4 2 -6 -12 -4 -33 3 -33 34 -72
57 -73 4 0 33 -9 63 -21 40 -15 62 -30 76 -53 11 -18 19 -24 19 -15 0 9 -10
31 -23 50 -17 26 -38 39 -94 59 -96 33 -106 44 -70 76 17 14 41 24 60 24 24 0
28 3 17 10 -24 16 -59 11 -77 -9z"/>
<path d="M4781 3146 c21 -6 46 -19 56 -28 26 -24 33 -23 32 5 0 12 -3 16 -6 9
-4 -10 -9 -8 -20 7 -11 16 -24 21 -56 20 l-42 -1 36 -12z"/>
<path d="M4840 3075 c-7 -8 -42 -24 -79 -35 -72 -21 -105 -48 -116 -92 -9 -37
6 -35 27 3 13 21 39 40 91 63 68 31 106 60 95 71 -3 3 -11 -1 -18 -10z"/>
<path d="M1353 2953 c20 -5 23 -33 5 -52 -11 -11 -10 -13 1 -9 40 12 39 69 -1
67 -17 -1 -18 -2 -5 -6z"/>
<path d="M4634 2694 c22 -21 20 -33 -6 -43 -19 -7 -20 -8 -3 -14 9 -4 24 -2
31 4 19 16 18 55 -2 63 -28 11 -36 6 -20 -10z"/>
</g>
</svg>
